# Blender v2.79 (sub 0) OBJ File: 'Building01_2.blend'
# www.blender.org
mtllib Building01.mtl
o Object.3
v -2.171037 1.666106 2.090126
v -1.116440 1.666106 2.090126
v -2.171037 1.666106 1.961318
v -1.116440 -0.000000 1.961318
v -2.171037 -0.000000 2.090126
v -2.171037 -0.000000 1.961318
v -2.171037 -0.000000 2.090126
v -1.116440 -0.000000 1.961318
v -1.116440 -0.000000 2.090126
v -1.116440 1.666106 1.961318
v -2.171037 1.666106 1.961318
v -1.116440 1.666106 2.090126
v -2.171037 -0.000000 2.090126
v -1.116440 -0.000000 2.090126
v -1.116440 1.666106 2.090126
v -2.171037 -0.000000 2.090126
v -2.171037 1.666106 1.961318
v -2.171037 -0.000000 1.961318
v -1.116440 1.666106 1.961318
v -1.116440 1.666106 2.090126
v -1.116440 -0.000000 2.090126
v -2.171037 -0.000000 1.961318
v -2.171037 1.666106 1.961318
v -1.116440 1.666106 1.961318
v -2.171037 -0.000000 2.090126
v -2.171037 1.666106 2.090126
v -2.171037 1.666106 1.961318
v -1.116440 -0.000000 2.090126
v -1.116440 -0.000000 1.961318
v -1.116440 1.666106 1.961318
v -1.116440 1.666106 2.090126
v -2.171037 1.666106 2.090126
v -2.171037 -0.000000 2.090126
v -1.116440 1.666106 1.961318
v -1.116440 -0.000000 1.961318
v -2.171037 -0.000000 1.961318
v 2.598056 4.433285 0.294017
v 2.598056 4.433285 -0.326133
v 3.218207 4.433285 0.294017
v 3.218207 4.433285 -0.326133
v 2.598056 3.463953 0.294017
v 2.598056 3.463953 -0.326133
v 3.218207 3.463953 -0.326133
v 3.218207 3.463954 0.294017
v 2.598056 4.433285 -0.016058
v 3.218207 4.433285 -0.016058
v 3.218207 3.628269 -0.016058
v 2.598056 3.628269 -0.016058
v -3.148931 2.328189 1.961322
v 3.348951 2.328189 1.961322
v -3.148931 2.328189 -2.011861
v 3.348951 0.000000 -2.011861
v -3.148931 -0.000000 1.961321
v -3.148931 0.000000 -2.011861
v 3.348951 -0.000000 1.961321
v 3.348951 2.328189 -2.011861
v -3.455454 2.328189 2.388165
v 3.652725 2.328189 2.388165
v 3.652725 3.626520 -0.016241
v -3.455454 3.626520 -0.016241
v -3.455454 2.328189 -2.420888
v 3.652725 2.328189 -2.420888
vn 0.0000 1.0000 0.0000
vn 0.0000 -1.0000 -0.0000
vn 0.0000 -0.0000 1.0000
vn -1.0000 -0.0000 0.0000
vn 1.0000 0.0000 0.0000
vn 0.0000 0.0000 -1.0000
vn 0.0000 0.8799 0.4751
vn 0.0000 0.8799 -0.4751
usemtl Door
s off
f 1//1 2//1 3//1
f 4//2 5//2 6//2
f 7//2 8//2 9//2
f 10//1 11//1 12//1
f 13//3 14//3 15//3
f 16//4 17//4 18//4
f 19//5 20//5 21//5
f 22//6 23//6 24//6
f 25//4 26//4 27//4
f 28//5 29//5 30//5
f 31//3 32//3 33//3
f 34//6 35//6 36//6
usemtl chimney
f 48//4 45//4 38//4 42//4
f 42//6 38//6 40//6 43//6
f 47//5 46//5 39//5 44//5
f 44//3 39//3 37//3 41//3
f 46//1 45//1 37//1 39//1
f 40//1 38//1 45//1 46//1
f 43//5 40//5 46//5 47//5
f 41//4 37//4 45//4 48//4
usemtl Walls
f 49//1 50//1 51//1
f 52//2 53//2 54//2
f 53//2 52//2 55//2
f 56//1 51//1 50//1
f 53//3 55//3 50//3
f 53//4 51//4 54//4
f 56//5 50//5 55//5
f 54//6 51//6 56//6
f 53//4 49//4 51//4
f 55//5 52//5 56//5
f 50//3 49//3 53//3
f 56//6 52//6 54//6
usemtl Roof
f 57//7 58//7 59//7
f 60//4 61//4 57//4
f 60//8 59//8 62//8
f 61//8 60//8 62//8
f 62//2 58//2 57//2
f 59//5 58//5 62//5
f 59//7 60//7 57//7
f 62//2 57//2 61//2
