# Blender v2.79 (sub 0) OBJ File: 'Building02_2.blend'
# www.blender.org
mtllib Building02.mtl
o Object.2
v -3.455454 2.328189 2.388165
v 3.666023 2.328189 2.388165
v 3.666023 3.626520 -0.016241
v -3.455454 3.626520 -0.016241
v -3.455454 2.328189 -2.420888
v 3.666023 2.328189 -2.420888
v -4.092834 0.012086 1.581494
v -4.092834 0.012086 -1.581494
v -3.145878 0.012086 1.581494
v -3.145878 0.292508 1.581494
v -3.145878 0.012086 -1.581494
v -3.145878 0.292508 -1.581494
v 2.981278 1.986492 1.590781
v 2.981278 0.312049 -1.631773
v 2.981278 0.312048 1.590781
v 2.981278 1.986493 -1.631773
v -3.148931 2.328189 1.961322
v 3.348951 2.328189 1.961322
v -3.148931 2.328189 -2.011861
v 3.348951 0.000000 -2.011861
v -3.148931 -0.000000 1.961321
v -3.148931 0.000000 -2.011861
v 3.348951 -0.000000 1.961321
v 3.348951 2.328189 -2.011861
v -3.148932 1.986492 1.590781
v -3.148932 0.312048 1.590781
v -3.148932 1.986493 -1.631773
v -3.148932 0.312049 -1.631773
vn 0.0000 0.8799 0.4751
vn -1.0000 0.0000 0.0000
vn 0.0000 0.8799 -0.4751
vn 0.0000 -1.0000 0.0000
vn 1.0000 -0.0000 0.0000
vn 0.0000 0.0000 -1.0000
vn 0.0000 0.0000 1.0000
vn -0.2839 0.9588 0.0000
vn 0.0000 1.0000 0.0000
usemtl Roof
s off
f 1//1 2//1 3//1
f 4//2 5//2 1//2
f 4//3 3//3 6//3
f 5//3 4//3 6//3
f 6//4 2//4 1//4
f 3//5 2//5 6//5
f 3//1 4//1 1//1
f 6//4 1//4 5//4
usemtl Ramp
f 8//6 12//6 11//6
f 11//5 12//5 10//5 9//5
f 9//7 10//7 7//7
f 8//4 11//4 9//4 7//4
f 12//8 8//8 7//8 10//8
usemtl Walls
f 14//9 28//9 26//9
f 16//4 13//4 27//4
f 16//2 15//2 13//2
f 15//2 16//2 14//2
f 13//6 26//6 25//6
f 16//7 28//7 14//7
f 17//9 18//9 19//9
f 20//4 21//4 22//4
f 21//4 20//4 23//4
f 24//9 19//9 18//9
f 21//7 23//7 18//7
f 21//2 26//2 28//2 27//2 19//2 22//2
f 24//5 18//5 23//5
f 22//6 19//6 24//6
f 21//2 17//2 19//2 27//2 25//2 26//2
f 23//5 20//5 24//5
f 18//7 17//7 21//7
f 24//6 20//6 22//6
f 28//7 16//7 27//7
f 26//9 15//9 14//9
f 27//4 13//4 25//4
f 26//6 13//6 15//6
