# Blender v2.81 (sub 16) OBJ File: 'House.blend'
# www.blender.org
mtllib House.mtl
o house_Cube
v 6.239477 5.139808 -6.608485
v 6.239477 -0.000846 -6.608485
v 6.239477 5.139808 6.608485
v 6.239477 -0.000846 6.608485
v -6.239477 5.139808 -6.608485
v -6.239477 -0.000846 -6.608485
v -6.239477 5.139808 6.608485
v -6.239477 -0.000846 6.608485
v -6.239477 -0.000846 0.000000
v 0.000000 -0.000846 -6.608485
v 6.239477 2.569481 -6.608485
v -6.239477 2.569481 6.608485
v 6.239477 2.569481 6.608485
v -6.239477 2.569481 -6.608485
v 0.000000 6.801195 6.608485
v 6.239477 5.139808 0.000000
v 0.000000 -0.000846 6.608485
v -6.239477 5.139808 0.000000
v 0.000000 6.801195 -6.608485
v 6.239477 -0.000846 0.000000
v 0.000000 2.569481 -6.608485
v 6.239477 2.569481 0.000000
v 0.000000 -0.000846 0.000000
v -6.239477 2.569481 0.000000
v 0.000000 2.569481 6.608485
v 0.000000 6.801195 0.000000
vt 0.750000 0.625000
vt 0.875000 0.625000
vt 0.875000 0.750000
vt 0.750000 0.750000
vt 0.500000 0.875000
vt 0.625000 0.875000
vt 0.625000 1.000000
vt 0.500000 1.000000
vt 0.500000 0.125000
vt 0.625000 0.125000
vt 0.625000 0.250000
vt 0.500000 0.250000
vt 0.250000 0.625000
vt 0.375000 0.625000
vt 0.375000 0.750000
vt 0.250000 0.750000
vt 0.500000 0.625000
vt 0.625000 0.625000
vt 0.625000 0.750000
vt 0.500000 0.750000
vt 0.500000 0.375000
vt 0.625000 0.375000
vt 0.625000 0.500000
vt 0.500000 0.500000
vt 0.375000 0.375000
vt 0.375000 0.500000
vt 0.375000 0.250000
vt 0.125000 0.625000
vt 0.125000 0.750000
vt 0.125000 0.500000
vt 0.250000 0.500000
vt 0.375000 0.125000
vt 0.375000 0.000000
vt 0.500000 0.000000
vt 0.625000 0.000000
vt 0.375000 0.875000
vt 0.375000 1.000000
vt 0.750000 0.500000
vt 0.875000 0.500000
vn -0.2573 0.9663 0.0000
vn 0.0000 0.0000 1.0000
vn -1.0000 0.0000 0.0000
vn 0.0000 -1.0000 0.0000
vn 1.0000 0.0000 0.0000
vn 0.0000 0.0000 -1.0000
vn 0.2573 0.9663 0.0000
usemtl Material.002
s off
f 26/1/1 18/2/1 7/3/1 15/4/1
f 25/5/2 15/6/2 7/7/2 12/8/2
f 24/9/3 18/10/3 5/11/3 14/12/3
f 23/13/4 20/14/4 4/15/4 17/16/4
f 22/17/5 16/18/5 3/19/5 13/20/5
f 21/21/6 19/22/6 1/23/6 11/24/6
f 10/25/6 21/21/6 11/24/6 2/26/6
f 6/27/6 14/12/6 21/21/6 10/25/6
f 14/12/6 5/11/6 19/22/6 21/21/6
f 20/14/5 22/17/5 13/20/5 4/15/5
f 2/26/5 11/24/5 22/17/5 20/14/5
f 11/24/5 1/23/5 16/18/5 22/17/5
f 9/28/4 23/13/4 17/16/4 8/29/4
f 6/30/4 10/31/4 23/13/4 9/28/4
f 10/31/4 2/26/4 20/14/4 23/13/4
f 9/32/3 24/9/3 14/12/3 6/27/3
f 8/33/3 12/34/3 24/9/3 9/32/3
f 12/34/3 7/35/3 18/10/3 24/9/3
f 17/36/2 25/5/2 12/8/2 8/37/2
f 4/15/2 13/20/2 25/5/2 17/36/2
f 13/20/2 3/19/2 15/6/2 25/5/2
f 16/18/7 26/1/7 15/4/7 3/19/7
f 1/23/7 19/38/7 26/1/7 16/18/7
f 19/38/1 5/39/1 18/2/1 26/1/1
o roof_Plane
v -8.341030 4.627341 8.341030
v 8.341030 4.611493 8.341030
v -8.341030 4.627341 -8.341030
v 8.341030 4.611493 -8.341030
v -8.341030 4.627341 0.000000
v 0.000000 6.842084 8.341030
v 8.341030 4.611493 0.000000
v 0.000000 6.842084 -8.341030
v 0.000000 6.842084 0.000000
v -8.340825 4.858362 0.000000
v -8.340825 4.858362 8.341030
v 0.000205 7.073105 8.341030
v 8.341235 4.842514 8.341030
v 8.341235 4.842514 0.000000
v 8.341235 4.842514 -8.341030
v 0.000205 7.073105 -8.341030
v -8.340825 4.858362 -8.341030
v 0.000205 7.073105 0.000000
vt 0.500000 0.500000
vt 0.500000 1.000000
vt 1.000000 1.000000
vt 1.000000 0.500000
vt 0.000000 0.500000
vt 0.000000 1.000000
vt 0.000000 0.000000
vt 0.500000 0.000000
vt 1.000000 0.000000
vt 0.500000 0.500000
vt 1.000000 0.500000
vt 1.000000 1.000000
vt 0.500000 1.000000
vt 0.000000 0.500000
vt 0.000000 1.000000
vt 0.000000 0.000000
vt 0.500000 0.000000
vt 1.000000 0.000000
vn -0.2583 -0.9661 0.0000
vn 0.2566 -0.9665 0.0000
vn 0.2583 0.9661 0.0000
vn -0.2566 0.9665 0.0000
vn 0.0000 0.0000 -1.0000
vn 0.0000 0.0000 1.0000
vn 1.0000 -0.0009 0.0000
vn -1.0000 0.0009 0.0000
usemtl Material.001
s off
f 35/40/8 34/41/8 30/42/8 33/43/8
f 31/44/9 29/45/9 34/41/9 35/40/9
f 27/46/9 31/44/9 35/40/9 32/47/9
f 32/47/8 35/40/8 33/43/8 28/48/8
f 44/49/10 40/50/10 41/51/10 42/52/10
f 36/53/11 44/49/11 42/52/11 43/54/11
f 37/55/11 38/56/11 44/49/11 36/53/11
f 38/56/10 39/57/10 40/50/10 44/49/10
f 34/41/12 29/45/12 43/54/12 42/52/12
f 32/47/13 28/48/13 39/57/13 38/56/13
f 28/48/14 33/43/14 40/50/14 39/57/14
f 29/45/15 31/44/15 36/53/15 43/54/15
f 33/43/14 30/42/14 41/51/14 40/50/14
f 31/44/15 27/46/15 37/55/15 36/53/15
f 30/42/12 34/41/12 42/52/12 41/51/12
f 27/46/13 32/47/13 38/56/13 37/55/13
o chimney_Cube.005
v -1.428813 0.011189 -5.073683
v -1.000000 8.671375 -5.073683
v -1.428813 0.011189 -7.073683
v -1.000000 8.671375 -7.073683
v 1.428813 0.011189 -5.073683
v 1.000000 8.671375 -5.073683
v 1.428813 0.011189 -7.073683
v 1.000000 8.671375 -7.073683
v -1.428813 0.011189 -6.073683
v -1.000000 5.439707 -5.073683
v -1.000000 8.671375 -6.073683
v -1.000000 5.439707 -7.073683
v 0.000000 0.011189 -7.073683
v 0.000000 8.671375 -7.073683
v 1.000000 5.439707 -7.073683
v 1.428813 0.011189 -6.073683
v 1.000000 8.671375 -6.073683
v 1.000000 5.439707 -5.073683
v 0.000000 0.011189 -5.073683
v 0.000000 8.671375 -5.073683
v 0.000000 8.671375 -6.073683
v 0.000000 0.011189 -6.073683
v 0.000000 5.439707 -5.073683
v 1.000000 5.439707 -6.073683
v 0.000000 5.439707 -7.073683
v -1.000000 5.439707 -6.073683
vt 0.500000 0.125000
vt 0.625000 0.125000
vt 0.625000 0.250000
vt 0.500000 0.250000
vt 0.500000 0.375000
vt 0.625000 0.375000
vt 0.625000 0.500000
vt 0.500000 0.500000
vt 0.500000 0.625000
vt 0.625000 0.625000
vt 0.625000 0.750000
vt 0.500000 0.750000
vt 0.500000 0.875000
vt 0.625000 0.875000
vt 0.625000 1.000000
vt 0.500000 1.000000
vt 0.250000 0.625000
vt 0.375000 0.625000
vt 0.375000 0.750000
vt 0.250000 0.750000
vt 0.750000 0.625000
vt 0.875000 0.625000
vt 0.875000 0.750000
vt 0.750000 0.750000
vt 0.750000 0.500000
vt 0.875000 0.500000
vt 0.125000 0.625000
vt 0.125000 0.750000
vt 0.125000 0.500000
vt 0.250000 0.500000
vt 0.375000 0.500000
vt 0.375000 0.875000
vt 0.375000 1.000000
vt 0.375000 0.375000
vt 0.375000 0.250000
vt 0.375000 0.125000
vt 0.375000 0.000000
vt 0.500000 0.000000
vt 0.625000 0.000000
vn -1.0000 0.0000 0.0000
vn 0.0000 0.0000 -1.0000
vn 1.0000 0.0000 0.0000
vn 0.0000 0.0000 1.0000
vn 0.0000 -1.0000 0.0000
vn 0.0000 1.0000 0.0000
vn 0.9969 0.0787 0.0000
vn -0.9969 0.0787 0.0000
usemtl Material.002
s off
f 70/58/16 55/59/16 48/60/16 56/61/16
f 69/62/17 58/63/17 52/64/17 59/65/17
f 68/66/18 61/67/18 50/68/18 62/69/18
f 67/70/19 64/71/19 46/72/19 54/73/19
f 66/74/20 60/75/20 49/76/20 63/77/20
f 65/78/21 55/79/21 46/80/21 64/81/21
f 61/67/21 65/78/21 64/81/21 50/68/21
f 52/64/21 58/82/21 65/78/21 61/67/21
f 58/82/21 48/83/21 55/79/21 65/78/21
f 53/84/20 66/74/20 63/77/20 45/85/20
f 47/86/20 57/87/20 66/74/20 53/84/20
f 57/87/20 51/88/20 60/75/20 66/74/20
f 63/89/19 67/70/19 54/73/19 45/90/19
f 49/76/19 62/69/19 67/70/19 63/89/19
f 62/69/19 50/68/19 64/71/19 67/70/19
f 60/75/22 68/66/22 62/69/22 49/76/22
f 51/88/22 59/65/22 68/66/22 60/75/22
f 59/65/18 52/64/18 61/67/18 68/66/18
f 57/91/17 69/62/17 59/65/17 51/88/17
f 47/92/17 56/61/17 69/62/17 57/91/17
f 56/61/17 48/60/17 58/63/17 69/62/17
f 53/93/23 70/58/23 56/61/23 47/92/23
f 45/94/23 54/95/23 70/58/23 53/93/23
f 54/95/16 46/96/16 55/59/16 70/58/16
