{"asset":{"generator":"3D Builder","version":"2.0"},"scene":0,"scenes":[{"nodes":[0,1,2]}],"nodes":[{"mesh":0,"matrix":[0.97043412923812866,0.24136795103549957,-3.2297883478804579E-8,0,3.52457885099966E-9,-1.4798257552683936E-7,-0.99999982118606567,0,-0.24136798083782196,0.97043401002883911,-1.4445805618379381E-7,0,0.21272499859333038,0.70344114303588867,-15.051097869873047,1]},{"mesh":1,"matrix":[0.03611370176076889,3.8142902170079651E-9,-0.015678098425269127,0,-0.015639098361134529,0.0027768951840698719,-0.036023594439029694,0,0.0011058100499212742,0.039271995425224304,0.0025471951812505722,0,-3.9897902011871338,1.3775191307067871,-5.8157196044921875,1]},{"mesh":2,"matrix":[0.03607269749045372,-4.3021213969041128E-7,-0.015772398561239243,0,-0.015772400423884392,4.7821180260143592E-7,-0.036072395741939545,0,5.6748507404336124E-7,0.039369996637105942,2.3706266460976622E-7,0,-4.0447001457214355,-2.083470344543457,-5.8776788711547852,1]}],"meshes":[{"primitives":[{"attributes":{"POSITION":0,"COLOR_0":1},"mode":4,"indices":2}]},{"primitives":[{"attributes":{"POSITION":3,"COLOR_0":4},"mode":4,"indices":5}]},{"primitives":[{"attributes":{"POSITION":6,"COLOR_0":7},"mode":4,"indices":8}]}],"accessors":[{"bufferView":0,"byteOffset":0,"count":310,"componentType":5126,"type":"VEC3","min":[-12.134201049804688,-11.1087007522583,-1],"max":[14.748500823974609,2.8086700439453125,2.2821400165557861]},{"bufferView":1,"byteOffset":0,"count":310,"componentType":5121,"type":"VEC4","normalized":true},{"bufferView":2,"byteOffset":0,"count":1350,"componentType":5125,"type":"SCALAR"},{"bufferView":3,"byteOffset":0,"count":160,"componentType":5126,"type":"VEC3","min":[-116.56400299072266,-432.3580322265625,-17.670101165771484],"max":[117.06400299072266,-219.55101013183594,79.590301513671875]},{"bufferView":4,"byteOffset":0,"count":160,"componentType":5121,"type":"VEC4","normalized":true},{"bufferView":5,"byteOffset":0,"count":732,"componentType":5125,"type":"SCALAR"},{"bufferView":6,"byteOffset":0,"count":76,"componentType":5126,"type":"VEC3","min":[-374.77902221679687,-130.07099914550781,52.919303894042969],"max":[-144.07000732421875,-15.645800590515137,57.966503143310547]},{"bufferView":7,"byteOffset":0,"count":76,"componentType":5121,"type":"VEC4","normalized":true},{"bufferView":8,"byteOffset":0,"count":270,"componentType":5125,"type":"SCALAR"}],"bufferViews":[{"buffer":0,"byteOffset":0,"byteLength":3720,"byteStride":12,"target":34962},{"buffer":0,"byteOffset":3720,"byteLength":1240,"byteStride":4,"target":34962},{"buffer":0,"byteOffset":4960,"byteLength":5400,"target":34963},{"buffer":0,"byteOffset":10360,"byteLength":1920,"byteStride":12,"target":34962},{"buffer":0,"byteOffset":12280,"byteLength":640,"byteStride":4,"target":34962},{"buffer":0,"byteOffset":12920,"byteLength":2928,"target":34963},{"buffer":0,"byteOffset":15848,"byteLength":912,"byteStride":12,"target":34962},{"buffer":0,"byteOffset":16760,"byteLength":304,"byteStride":4,"target":34962},{"buffer":0,"byteOffset":17064,"byteLength":1080,"target":34963}],"buffers":[{"byteLength":18144,"uri":"light_aircraft_02.bin"}]}